<?xml version="1.0" encoding="iso-8859-1"?>
<!-- Generator: Adobe Illustrator 19.0.0, SVG Export Plug-In . SVG Version: 6.00 Build 0)  -->
<svg version="1.1" id="Capa_1" xmlns="http://www.w3.org/2000/svg" xmlns:xlink="http://www.w3.org/1999/xlink" x="0px" y="0px"
	 viewBox="0 0 512 512" style="enable-background:new 0 0 512 512;" xml:space="preserve">
<g transform="matrix(1.25 0 0 -1.25 0 45)">
	<g>
		<g>
			<path style="fill:#292F33;" d="M175.153,24.622c2.31,4.301,6.121,11.207,20.548,6.849c21.8-6.599,2.207-18.227,2.207-18.227
				s22.756-11.378,22.756-45.511s-11.378-20.912-11.378-56.889c0-22.756-22.756,0-22.756,0l-34.133-34.133
				c-45.511-45.511-68.267,11.378-56.889,34.133s0,22.756,0,45.511s22.756,22.756,22.756,45.511S141.02,36,152.398,36
				S175.153,24.622,175.153,24.622"/>
			<path style="fill:#F7DECE;" d="M129.642-20.889c0-18.853,13.38-34.133,29.867-34.133c16.498,0,29.867,15.28,29.867,34.133
				s-13.369,34.133-29.867,34.133C143.023,13.244,129.642-2.036,129.642-20.889"/>
			<path style="fill:#292F33;" d="M158.087,24.622c-10.547,0-19.649-3.482-24.553-8.59c-12.55,2.355-5.439-17.26-15.269-36.921
				c-11.378-22.756,11.378-45.511,11.378-34.133s0,45.511,22.756,45.511h5.689c15.713,0,28.444,7.634,28.444,17.067
				S173.799,24.622,158.087,24.622"/>
			<g>
				<path style="fill:#F7DECE;" d="M251.464-81.111c-4.244,4.244-20.548,13.847-79.952,14.632l-4.915,44.18
					c-0.694,6.258-6.394,10.786-12.561,10.058c-6.246-0.694-10.752-6.315-10.058-12.561l4.631-41.597H96.453L29.12-55.182
					c-6.258,1.035-12.072-3.163-13.096-9.341c-1.035-6.201,3.152-12.072,9.341-13.096l68.267-11.378
					c0.626-0.114,1.252-0.159,1.877-0.159h31.278c0.102-2.981,0.979-6.69,2.856-11.378c11.378-28.444,34.133-91.022,34.133-91.022
					c25.134,0,34.133,57.06,34.133,85.333c0,6.861-0.546,12.06-1.707,16.009c13.722-1.001,23.063-2.537,29.207-3.994l-25.225-33.633
					c-3.766-5.029-2.753-12.163,2.276-15.929c2.048-1.536,4.437-2.276,6.815-2.276c3.47,0,6.872,1.57,9.114,4.551l34.133,45.511
					C255.924-91.454,255.469-85.116,251.464-81.111"/>
				<path style="fill:#F7DECE;" d="M175.131-339.467c-5.564,0-10.433,4.085-11.241,9.762l-11.378,79.644
					c-0.887,6.224,3.425,11.992,9.648,12.88c6.235,0.842,11.992-3.425,12.868-9.648l11.378-79.644
					c0.887-6.224-3.436-11.992-9.648-12.88C176.211-339.433,175.665-339.467,175.131-339.467"/>
				<path style="fill:#F7DECE;" d="M175.142-202.933c-5.37,0-10.149,3.812-11.173,9.273c-1.149,6.178,2.913,12.129,9.091,13.278
					l182.033,34.145c6.281,1.161,12.14-2.913,13.278-9.091c1.172-6.167-2.89-12.117-9.068-13.278l-182.056-34.122
					C176.541-202.865,175.836-202.933,175.142-202.933"/>
			</g>
			<g>
				<path style="fill:#DD2E44;" d="M129.642-111.911c0,0,11.378-11.378,11.378-34.133s0-34.133-22.756-68.267
					S72.753-248.444,61.376-271.2s0-22.756,22.756-11.378s11.378-45.511,45.511-45.511s22.756,34.133,45.511,34.133
					s34.133-34.133,56.889-34.133s29.366,27.523,11.378,45.511c-11.378,11.378,22.756,34.133,34.133,22.756
					c17.988-17.988,36.819,8.693,11.378,34.133c-11.378,11.378-20.355,23.95,0,34.133c22.756,11.378,28.444,56.889,0,45.511
					c-38.047-15.223-91.022-35.965-91.022,0v45.511c0,0-22.756,0-22.756,34.133c0,0-14.222-45.511-36.978,0
					C138.176-66.4,152.398-100.533,129.642-111.911"/>
				<path style="fill:#DD2E44;" d="M175.153-373.6c-6.281,0-11.378,5.086-11.378,11.378v34.133c0,6.292,5.097,11.378,11.378,11.378
					s11.378-5.086,11.378-11.378v-34.133C186.531-368.514,181.434-373.6,175.153-373.6"/>
				<path style="fill:#DD2E44;" d="M362.079-175.968c-2.503,0-5.018,0.819-7.122,2.514c-4.904,3.948-5.666,11.105-1.718,16.009
					l20.264,25.156c3.937,4.87,11.093,5.666,15.986,1.718c4.904-3.937,5.666-11.105,1.729-15.997l-20.275-25.156
					C368.701-174.512,365.413-175.968,362.079-175.968"/>
			</g>
		</g>
	</g>
</g>
<g>
</g>
<g>
</g>
<g>
</g>
<g>
</g>
<g>
</g>
<g>
</g>
<g>
</g>
<g>
</g>
<g>
</g>
<g>
</g>
<g>
</g>
<g>
</g>
<g>
</g>
<g>
</g>
<g>
</g>
</svg>
